<?xml version="1.0" standalone="no"?>
<!DOCTYPE svg PUBLIC "-//W3C//DTD SVG 20010904//EN"
 "http://www.w3.org/TR/2001/REC-SVG-20010904/DTD/svg10.dtd">
<svg version="1.0" xmlns="http://www.w3.org/2000/svg"
 width="1024.000000pt" height="1024.000000pt" viewBox="0 0 1024.000000 1024.000000"
 preserveAspectRatio="xMidYMid meet">
<metadata>
Created by potrace 1.14, written by Peter Selinger 2001-2017
</metadata>
<g transform="translate(0.000000,1024.000000) scale(0.100000,-0.100000)"
fill="#000000" stroke="none">
<path d="M5090 10174 c-14 -3 -74 -14 -134 -25 -59 -11 -161 -36 -225 -56 -99
-31 -128 -36 -197 -34 -285 8 -648 -91 -937 -256 -127 -73 -267 -166 -320
-213 -26 -23 -84 -60 -130 -82 -133 -64 -217 -134 -362 -301 -27 -31 -39 -36
-125 -52 -145 -26 -283 -4 -367 61 -19 14 -37 24 -39 21 -3 -3 6 -27 20 -55
36 -70 118 -147 205 -190 l74 -36 -34 -15 c-19 -7 -77 -16 -130 -19 -141 -7
-253 30 -356 119 -38 34 -49 39 -51 26 -8 -41 53 -173 119 -258 49 -62 159
-163 201 -185 16 -8 28 -19 28 -23 0 -11 -185 -175 -267 -238 -68 -51 -238
-136 -305 -152 -26 -6 -74 -11 -107 -11 -34 0 -61 -4 -61 -9 0 -5 14 -21 31
-36 82 -68 232 -115 370 -115 l87 0 -57 -112 c-70 -138 -99 -228 -110 -333 -9
-91 -15 -105 -82 -191 -55 -69 -128 -129 -207 -168 -29 -15 -50 -31 -47 -35
16 -28 255 -39 331 -16 21 6 21 5 16 -124 -8 -211 26 -371 114 -541 30 -58 65
-118 78 -133 l23 -29 -5 145 c-6 189 5 216 29 74 26 -150 77 -296 163 -467 96
-191 95 -186 54 -203 -42 -18 -110 -91 -142 -155 -93 -184 -100 -465 -15 -695
106 -293 370 -523 666 -582 49 -10 214 -7 251 4 31 9 33 8 54 -32 66 -130 191
-272 308 -350 167 -110 480 -246 793 -342 64 -20 117 -41 117 -46 0 -5 -32
-56 -71 -112 l-70 -102 -237 -120 c-493 -251 -537 -275 -577 -315 l-40 -39
-580 -2 c-319 -1 -821 -4 -1115 -8 -481 -6 -538 -8 -567 -24 -70 -38 -109
-128 -91 -209 7 -36 272 -849 438 -1348 26 -80 85 -259 130 -399 96 -297 110
-331 155 -387 19 -23 31 -44 28 -48 -4 -3 -240 -6 -525 -6 -532 0 -546 -1
-575 -39 -16 -20 -18 -191 -3 -191 7 0 10 -29 8 -79 -1 -44 -6 -77 -10 -75
-13 8 -9 -21 5 -38 6 -9 23 -19 37 -23 21 -6 20 -3 -7 14 -37 23 -45 38 -11
20 20 -11 21 -10 10 3 -16 20 -19 307 -2 338 6 11 21 25 33 29 22 9 2495 27
3192 24 204 0 1508 -4 2900 -7 2424 -7 2531 -8 2555 -25 25 -18 25 -20 28
-179 l2 -160 -26 -21 c-22 -17 -25 -24 -15 -34 10 -9 18 -5 42 21 l29 32 0
156 c0 164 -8 202 -49 224 -13 7 -279 10 -785 10 -421 0 -766 3 -766 6 0 3 18
26 40 51 57 65 81 147 87 298 6 144 -10 226 -112 570 -36 121 -93 319 -126
440 -140 506 -211 719 -304 910 -73 150 -125 227 -182 269 -68 51 -251 138
-523 251 -462 191 -407 160 -564 322 -75 78 -133 143 -129 146 4 3 57 24 118
48 214 83 444 213 598 337 87 70 177 182 225 279 23 47 41 72 49 68 7 -2 42
-7 77 -11 126 -13 320 34 439 105 195 119 357 334 419 556 19 68 22 106 22
250 0 182 -12 253 -67 377 -31 68 -103 156 -156 188 -22 14 -39 30 -37 35 3 6
29 64 60 130 74 160 136 379 136 480 0 22 3 51 7 64 5 20 9 16 30 -35 13 -33
33 -90 45 -129 l21 -70 16 35 c11 26 16 75 18 195 3 140 6 168 27 225 68 184
75 484 17 705 -38 144 -89 267 -148 355 -23 36 -54 98 -68 139 -43 129 -147
296 -256 415 -67 73 -59 74 32 7 141 -107 270 -317 322 -528 27 -109 41 -96
45 46 10 280 -106 523 -330 691 -129 98 -227 137 -364 147 l-82 6 16 36 c36
84 7 260 -54 329 l-23 27 -1 -48 c0 -72 -27 -154 -73 -224 -40 -61 -76 -86
-62 -43 8 25 -11 128 -37 205 -56 162 -154 321 -283 454 -117 121 -214 197
-405 314 -157 96 -210 122 -194 96 4 -8 22 -36 39 -64 17 -27 39 -68 48 -90
27 -64 67 -177 67 -187 0 -6 -28 16 -62 48 -194 179 -421 294 -673 339 -87 16
-439 29 -495 19z m477 -84 c120 -21 252 -64 348 -112 70 -35 221 -133 232
-151 4 -7 -4 -5 -17 4 -241 155 -470 232 -772 261 -68 6 -127 16 -133 21 -16
15 217 0 342 -23z m-504 -85 c37 -10 66 -19 64 -21 -2 -2 -62 3 -133 11 -71 8
-159 15 -196 15 -45 0 -68 4 -68 11 0 17 249 5 333 -16z m-455 -26 c53 -6 149
-23 213 -39 190 -48 215 -65 43 -30 -301 62 -614 44 -909 -51 -98 -32 -213
-88 -370 -180 -99 -58 -192 -98 -180 -78 14 22 227 154 330 204 183 90 416
159 595 178 75 8 185 7 278 -4z m1974 -195 c193 -149 350 -371 420 -594 20
-64 23 -96 23 -220 0 -125 -3 -154 -23 -210 -26 -75 -48 -113 -37 -66 32 146
23 338 -21 471 -44 133 -123 278 -196 363 -35 40 -35 37 -2 -22 15 -26 25 -49
23 -51 -2 -2 -47 53 -99 123 -52 69 -130 165 -172 213 -43 48 -78 90 -78 93 0
9 100 -53 162 -100z m-1030 -144 c66 -45 171 -130 141 -115 -7 3 -62 42 -123
85 -122 88 -136 110 -18 30z m737 -117 c60 -60 63 -65 58 -99 -4 -23 -1 -47 9
-65 19 -38 11 -37 -26 4 -24 26 -32 30 -47 21 -13 -8 -17 -21 -14 -55 l3 -44
-26 24 c-33 31 -33 23 4 -78 17 -46 29 -86 26 -88 -2 -3 -30 45 -61 106 -31
61 -85 151 -121 202 -44 61 -56 84 -38 70 18 -14 30 -18 34 -11 4 7 11 5 20
-6 8 -9 40 -36 71 -60 58 -45 67 -45 82 -1 9 26 -9 65 -61 132 -47 59 -47 60
-12 35 19 -13 63 -53 99 -87z m-939 75 c0 -6 3 -8 6 -5 12 11 145 -65 228
-131 174 -137 217 -175 261 -232 25 -32 45 -61 45 -65 0 -3 -26 19 -57 50 -54
53 -265 203 -306 218 -32 12 -8 -12 50 -49 52 -33 163 -138 163 -153 0 -4 -12
-18 -26 -30 -24 -21 -27 -21 -43 -7 -10 9 -21 13 -24 9 -4 -3 -7 1 -7 9 0 10
-13 17 -37 21 -20 4 -39 5 -41 3 -2 -2 17 -23 42 -47 25 -23 46 -48 46 -54 0
-7 9 -24 20 -38 11 -14 17 -32 14 -40 -7 -18 -37 -32 -42 -19 -1 5 -10 18 -18
28 -13 16 -13 14 1 -13 8 -18 19 -33 23 -33 4 0 8 -8 8 -17 1 -10 9 -35 18
-55 25 -57 12 -45 -27 25 -65 114 -180 271 -248 337 -54 53 -66 70 -63 90 3
13 9 29 14 34 6 6 10 21 10 34 0 19 4 22 20 17 16 -5 20 -2 20 14 0 12 6 21
13 22 10 0 10 2 0 6 -7 2 -13 11 -13 19 0 8 -3 14 -7 14 -14 0 -68 49 -55 50
6 0 12 -5 12 -12z m-1947 -75 c4 -3 -33 -23 -83 -43 -116 -48 -239 -119 -345
-197 -46 -35 -87 -63 -91 -63 -5 0 14 23 41 51 103 105 230 184 365 227 36 12
72 23 80 26 22 7 26 7 33 -1z m1040 -116 c37 -8 69 -16 72 -18 2 -3 -27 -3
-66 -1 -92 6 -227 -7 -208 -19 9 -5 -5 -6 -36 -3 -44 6 -48 5 -35 -8 8 -8 44
-25 80 -38 87 -31 90 -36 22 -33 -46 3 -64 -1 -97 -21 l-40 -25 58 -25 c32
-14 63 -26 69 -26 6 0 9 -3 5 -6 -3 -3 -34 3 -69 15 -58 19 -141 37 -273 60
l-50 8 53 8 c29 4 55 12 58 16 3 5 16 9 29 9 13 0 27 5 31 12 5 7 2 9 -8 5
-13 -4 -16 1 -15 29 1 18 3 30 6 25 4 -5 11 -3 18 4 17 18 -4 25 -72 25 -63 0
-83 17 -28 23 72 9 428 -3 496 -16z m869 9 c3 3 8 -4 11 -16 7 -27 -5 -25 -34
6 -22 24 -22 26 -3 16 12 -6 24 -9 26 -6z m-218 -48 c-5 -8 -2 -9 10 -5 25 10
85 -48 205 -199 18 -22 51 -93 51 -109 0 -9 -9 -15 -25 -15 -19 0 -23 -4 -18
-17 3 -10 -14 1 -38 25 -25 23 -48 42 -53 42 -4 0 -44 29 -90 64 -45 36 -95
70 -112 77 -16 8 -39 19 -50 27 -22 13 -22 13 14 47 22 23 45 35 62 35 19 0
29 6 33 20 3 11 8 20 12 20 3 0 3 -5 -1 -12z m-754 -12 c0 -2 -9 -6 -20 -9
-11 -3 -18 -1 -14 4 5 9 34 13 34 5z m604 -123 c28 -14 78 -47 111 -73 69 -55
196 -184 214 -217 10 -21 9 -23 -11 -23 -26 -1 -82 -45 -73 -59 3 -5 -4 -12
-15 -16 -11 -3 -20 -13 -20 -20 0 -11 -8 -13 -29 -9 -23 5 -32 2 -41 -16 -9
-16 -8 -25 2 -38 19 -23 0 -11 -92 59 -121 91 -239 165 -361 224 -63 30 -119
55 -126 55 -6 0 -14 4 -17 9 -4 5 10 8 29 7 54 -5 108 17 119 48 6 14 14 26
18 26 10 0 144 -48 267 -95 51 -20 98 -34 103 -33 12 4 -203 112 -287 144 -33
13 -52 23 -43 23 9 1 28 -4 42 -11 23 -10 29 -8 57 21 27 29 35 32 67 26 20
-4 59 -18 86 -32z m2304 -150 c-6 -59 -37 -128 -51 -114 -6 6 -18 4 -33 -6
-34 -22 -30 -8 11 39 19 22 42 60 52 84 10 24 20 44 22 44 2 0 1 -21 -1 -47z
m-2993 -88 c94 -15 262 -58 273 -71 4 -4 -4 -4 -18 0 -14 3 -44 9 -67 12 -24
4 -43 10 -43 14 0 22 -292 41 -305 20 -3 -5 -17 -10 -31 -10 -18 0 -24 -5 -24
-21 0 -19 -4 -21 -36 -14 -26 4 -39 2 -45 -7 -7 -10 -9 -10 -9 0 0 6 -7 12
-15 12 -8 0 -15 -4 -15 -10 0 -6 -27 -10 -60 -10 -45 0 -60 -3 -60 -14 0 -8
-8 -16 -17 -18 -10 -3 57 -4 150 -4 92 1 167 -2 167 -6 0 -5 13 -8 29 -8 16 0
33 -6 39 -12 8 -10 -35 -13 -211 -13 -163 0 -250 -5 -327 -18 -184 -30 -187
-30 -169 -15 9 7 14 19 11 27 -3 8 8 25 24 38 17 13 23 23 15 23 -10 0 -12 3
-5 10 5 5 36 12 69 16 33 4 66 13 73 21 8 8 23 11 36 8 16 -5 18 -4 6 4 -15
11 -58 5 -75 -10 -5 -5 -37 -9 -71 -9 -34 0 -81 -7 -104 -15 -49 -17 -58 -18
-44 -6 12 12 213 67 296 82 178 30 386 31 563 4z m-108 -31 c-3 -3 -12 -4 -19
-1 -8 3 -5 6 6 6 11 1 17 -2 13 -5z m120 0 c-3 -3 -12 -4 -19 -1 -8 3 -5 6 6
6 11 1 17 -2 13 -5z m3198 -89 c143 -38 299 -151 392 -287 99 -144 127 -226
35 -101 -70 94 -210 224 -289 270 -86 49 -174 73 -290 80 -61 4 -100 10 -96
15 22 37 148 49 248 23z m-2036 -65 c11 -24 11 -24 -3 -6 -9 11 -16 24 -16 30
0 12 5 7 19 -24z m1963 -110 c116 -36 237 -135 327 -269 57 -84 134 -221 128
-227 -3 -3 -28 25 -56 64 -86 118 -163 169 -346 228 -91 29 -96 32 -59 33 46
1 188 -26 217 -40 36 -20 16 14 -45 75 -72 70 -141 111 -248 143 -69 22 -71
23 -25 17 27 -3 75 -14 107 -24z m-3566 -159 c-55 -10 -102 -23 -104 -29 -2
-7 -13 -10 -27 -6 -13 3 -32 1 -42 -5 -10 -6 -13 -11 -6 -11 7 0 10 -7 7 -15
-4 -9 0 -15 10 -15 9 0 16 -4 16 -10 0 -5 5 -10 10 -10 6 0 20 -8 31 -19 20
-18 20 -18 -14 -24 -41 -6 -172 -65 -164 -73 3 -3 20 -1 39 4 98 30 148 42
174 41 16 0 23 -3 17 -6 -7 -2 -13 -15 -13 -27 0 -38 -73 -91 -266 -195 -100
-54 -194 -107 -210 -118 -16 -11 -40 -26 -54 -32 -23 -11 -23 -11 -7 3 10 8
20 22 21 30 1 9 22 37 46 61 60 61 44 74 -39 35 -68 -33 -88 -32 -53 0 12 12
22 25 22 31 0 6 4 8 9 5 5 -3 11 1 15 9 7 19 7 19 -48 -10 -26 -14 -49 -25
-52 -25 -6 0 37 63 49 71 4 3 9 16 10 27 1 12 5 22 9 22 10 0 41 60 31 60 -5
0 1 7 11 15 11 8 15 15 10 15 -6 0 -14 -3 -18 -7 -3 -4 -14 -8 -24 -9 -9 -2
-18 -8 -20 -13 -2 -6 -10 -11 -17 -11 -28 0 -220 -109 -325 -184 -79 -57 -48
-18 48 59 119 96 282 205 382 255 158 79 359 125 560 127 l75 1 -99 -17z
m-1511 -77 c-68 -63 -187 -155 -193 -149 -2 2 13 19 34 37 21 18 72 63 114
100 90 81 131 91 45 12z m5028 -232 c18 -11 43 -22 57 -26 14 -3 36 -15 50
-27 24 -20 24 -20 3 -14 -18 5 -22 3 -17 -9 6 -17 -20 -23 -30 -8 -3 5 -59 33
-125 62 -66 29 -118 57 -116 61 8 11 144 -19 178 -39z m-3458 -47 c-16 -13
-33 -24 -37 -25 -4 0 -5 -7 -2 -15 4 -9 -10 -24 -42 -45 -26 -16 -44 -30 -40
-30 5 0 3 -7 -4 -15 -11 -13 -8 -15 14 -15 14 0 26 -4 26 -10 0 -6 9 -6 26 0
14 6 28 10 32 10 7 0 -229 -176 -275 -205 -17 -11 -60 -39 -94 -63 -34 -23
-64 -40 -67 -38 -2 3 24 32 59 66 61 57 72 82 19 40 -59 -46 -43 -15 57 113
30 37 52 67 49 67 -9 0 -132 -73 -164 -97 -38 -28 -151 -77 -160 -68 -9 9 17
30 138 110 124 81 343 192 470 238 26 9 26 7 -5 -18z m3366 -71 c61 -31 108
-58 105 -61 -3 -3 -19 2 -37 11 -18 9 -40 16 -49 16 -18 0 -80 28 -80 36 0 3
5 2 10 -1 6 -3 10 -4 10 0 0 3 -24 16 -52 29 -29 14 -45 25 -35 25 10 1 68
-24 128 -55z m633 -38 c94 -131 152 -264 197 -446 19 -78 23 -123 23 -250 1
-150 -16 -294 -35 -306 -5 -3 -9 78 -9 198 0 226 -11 315 -59 481 -32 110 -80
216 -151 332 -22 36 -40 68 -40 71 0 14 32 -21 74 -80z m-696 15 c52 -27 162
-109 162 -121 0 -6 17 -29 38 -51 47 -51 64 -83 26 -48 -40 37 -168 121 -234
154 -30 15 -58 32 -61 37 -3 5 -9 9 -13 9 -24 -3 -28 0 -16 14 7 9 21 13 31
10 11 -4 19 -2 19 4 0 15 5 14 48 -8z m-105 -122 c140 -56 204 -92 260 -144
26 -25 47 -47 47 -48 0 -15 -47 7 -103 47 -72 52 -93 55 -58 9 12 -15 33 -44
46 -63 13 -19 40 -57 60 -85 44 -63 45 -74 1 -34 -19 17 -56 42 -83 56 -50 27
-243 161 -243 170 0 2 5 1 10 -2 13 -8 80 -14 80 -7 0 22 -63 95 -100 116 -67
38 -31 31 83 -15z m-3868 -159 c-26 -29 -39 -25 -13 5 12 14 24 23 26 20 3 -3
-3 -14 -13 -25z m230 -20 c-3 -5 -11 -10 -16 -10 -6 0 -7 5 -4 10 3 6 11 10
16 10 6 0 7 -4 4 -10z m3547 -80 c92 -46 198 -117 256 -173 40 -40 54 -67 31
-67 -5 0 -8 3 -5 8 2 4 -7 13 -21 19 -27 13 -28 9 -7 -42 6 -15 -5 -10 -39 18
-29 24 -47 33 -47 24 0 -14 13 -34 78 -118 17 -23 30 -44 28 -47 -3 -2 -24 12
-47 32 -40 34 -59 44 -59 30 0 -8 41 -85 56 -104 6 -8 14 -26 18 -40 3 -14 3
-19 0 -12 -3 6 -14 12 -25 12 -23 0 -83 58 -161 156 -31 39 -79 88 -106 108
-44 32 -94 80 -66 63 7 -4 17 0 24 8 7 8 23 15 36 15 21 0 24 5 24 35 0 29 4
35 22 35 17 0 9 9 -32 35 -30 19 -60 35 -67 35 -6 0 -15 5 -19 11 -11 19 43 2
128 -41z m-1017 -15 c-16 -14 -34 -25 -38 -25 -5 0 -5 -5 -2 -10 4 -6 35 -8
78 -4 69 5 71 4 45 -11 -16 -9 -28 -18 -28 -20 0 -3 77 -2 170 2 149 5 170 4
170 -9 0 -9 -10 -22 -22 -31 -27 -18 -28 -18 90 -40 58 -11 116 -32 188 -67
57 -29 104 -53 104 -54 0 -1 -39 4 -87 11 -49 7 -92 11 -97 10 -5 -2 11 -15
35 -29 46 -27 211 -164 217 -179 4 -10 -31 2 -78 26 -16 8 -31 15 -34 15 -3 0
19 -35 48 -77 54 -80 89 -142 106 -191 8 -23 8 -24 -3 -8 -22 34 -69 86 -78
86 -5 0 -5 -10 1 -22 5 -13 22 -66 38 -118 17 -53 55 -154 85 -225 105 -249
129 -311 172 -435 57 -162 82 -289 97 -480 13 -170 1 -376 -22 -390 -7 -5 -9
-13 -5 -20 5 -8 4 -11 -2 -7 -10 7 -25 -48 -44 -163 -15 -95 -46 -215 -76
-295 -69 -186 -144 -276 -283 -343 -96 -45 -313 -108 -407 -118 -55 -6 -63 -9
-64 -28 -2 -20 -2 -20 -6 2 -5 23 -23 31 -23 10 0 -9 -3 -9 -12 0 -20 20 -28
14 -30 -25 l-1 -38 -4 36 c-3 30 -8 37 -26 36 -12 -1 -34 2 -49 6 -22 6 -27 4
-31 -15 -4 -20 -4 -20 -6 4 0 15 -6 30 -12 34 -6 3 -17 20 -25 38 -13 30 -13
28 -15 -49 0 -44 -4 -91 -9 -105 -4 -15 -7 11 -5 65 3 112 -8 208 -23 213 -7
2 -12 14 -12 27 0 13 -5 27 -11 30 -6 4 -10 1 -8 -6 4 -34 -2 -332 -7 -326 -3
3 -5 86 -4 184 1 171 0 179 -21 197 -49 41 -121 52 -221 31 -29 -5 -38 -12
-39 -29 -2 -20 -2 -20 -6 2 -8 40 -33 26 -35 -20 l-1 -43 -4 38 c-4 37 -22 52
-24 20 -1 -17 -2 -17 -6 0 -9 34 -18 16 -15 -28 2 -25 8 -45 12 -45 5 0 6 8 3
19 -3 10 0 22 6 25 7 4 11 -1 11 -14 0 -19 3 -21 33 -13 56 14 133 7 176 -18
23 -12 41 -29 41 -36 0 -7 10 -23 22 -35 22 -22 23 -31 22 -168 0 -128 -3
-151 -22 -192 -13 -26 -27 -50 -32 -53 -6 -3 -10 -15 -10 -26 0 -10 -3 -18 -8
-16 -13 4 -62 -40 -62 -56 0 -9 -4 -19 -10 -22 -5 -3 -10 -1 -10 5 0 7 -6 10
-12 7 -7 -2 -12 -14 -10 -25 2 -12 -1 -22 -7 -22 -6 0 -8 7 -5 15 7 16 -11 21
-20 6 -4 -5 -29 -15 -57 -22 -28 -7 -54 -19 -56 -26 -4 -10 -9 -11 -19 -2 -11
9 -16 6 -23 -12 -7 -18 -10 -19 -10 -6 -1 19 -16 23 -27 6 -4 -8 -9 -7 -15 2
-6 11 -9 11 -13 -1 -13 -43 -14 -44 -15 -24 -1 16 -9 23 -31 26 -36 5 -40 3
-41 -31 -1 -25 -2 -25 -8 3 -8 40 -31 46 -32 9 l-1 -28 -7 29 c-6 29 -31 49
-31 25 0 -7 -6 -4 -14 7 -14 19 -15 19 -22 -1 -8 -19 -8 -19 -14 4 -7 29 -30
40 -30 14 -1 -36 -17 10 -24 69 -6 50 -4 64 18 109 22 44 24 50 9 44 -31 -12
-126 -23 -191 -21 -34 0 -62 -3 -62 -7 0 -5 -7 -1 -16 7 -14 15 -54 22 -54 11
0 -4 6 -18 14 -33 7 -15 16 -61 18 -102 3 -41 2 -66 -2 -55 -7 19 -8 18 -14
-5 -3 -14 -7 -56 -9 -95 l-3 -70 -2 73 c-1 39 -4 72 -5 72 -2 0 -19 -8 -38
-17 -44 -22 -181 -26 -271 -7 -61 13 -84 22 -158 66 -25 14 -75 66 -101 105
-8 13 -18 21 -21 18 -2 -3 -5 1 -5 7 -1 7 -6 47 -13 88 -18 107 -9 241 19 275
11 15 18 31 15 36 -3 5 -2 8 3 7 4 -1 23 6 41 17 29 18 32 23 32 70 0 44 -3
51 -20 52 -14 1 -20 -5 -21 -20 -2 -22 -2 -22 -6 1 -4 21 -23 32 -23 12 0 -5
-7 -7 -15 -4 -12 5 -15 -7 -17 -72 l-2 -79 -3 73 c-2 39 -8 72 -13 72 -6 0
-11 -39 -12 -87 l-2 -88 -3 73 c-2 43 -8 70 -13 67 -6 -4 -10 -18 -10 -33 0
-19 -3 -23 -9 -13 -6 10 -12 3 -21 -25 -7 -22 -16 -44 -21 -49 -9 -12 -24
-113 -20 -134 1 -7 -2 -10 -8 -7 -16 10 -25 -14 -32 -79 l-6 -60 -1 53 c-3 75
-22 56 -23 -21 -1 -68 -4 -67 -14 6 -11 80 -25 42 -20 -54 3 -54 1 -89 -5 -89
-6 0 -9 3 -9 8 1 4 1 44 0 90 -1 114 -21 106 -23 -10 -1 -66 -3 -75 -5 -33 -4
81 -12 125 -23 125 -5 0 -8 -14 -8 -30 1 -17 -2 -33 -5 -37 -4 -3 -7 8 -7 25
0 17 -4 34 -10 37 -6 4 -10 -5 -10 -19 0 -14 -4 -26 -10 -26 -5 0 -10 11 -10
25 0 14 -4 25 -10 25 -5 0 -10 -17 -10 -37 0 -44 -8 -40 -12 5 -1 18 -8 32
-15 32 -6 0 -10 -8 -8 -18 2 -10 -1 -25 -6 -33 -6 -10 -9 -5 -9 19 0 39 -20
43 -21 5 l-1 -28 -7 30 c-5 25 -11 30 -36 31 -17 0 -36 4 -43 8 -8 5 -12 -2
-13 -21 l-2 -28 -4 28 c-3 18 -10 27 -23 27 -10 0 -25 3 -34 6 -11 4 -16 0
-17 -12 0 -16 -2 -15 -9 4 -13 31 -31 28 -25 -5 l5 -28 -13 29 c-11 22 -31 35
-94 60 -85 34 -165 87 -208 137 -88 106 -188 374 -231 624 -58 339 -58 336
-58 540 0 209 4 243 54 450 50 205 99 545 100 688 0 32 5 67 10 77 6 10 12 31
13 47 2 15 14 60 25 98 23 72 34 89 160 231 67 77 78 85 155 114 45 18 132 43
192 57 61 13 117 27 125 30 8 3 -23 14 -70 24 l-85 18 100 -5 c55 -2 94 -1 88
2 -38 17 3 24 152 24 103 0 165 4 165 10 0 6 -5 10 -12 10 -6 0 -9 2 -7 4 2 2
76 -6 164 -19 209 -32 205 -32 175 0 -26 28 -24 30 17 14 15 -6 71 -22 124
-34 53 -13 120 -33 150 -44 66 -25 62 -25 56 -1 -7 28 2 25 13 -5 12 -32 34
-32 110 0 32 14 132 42 222 63 90 22 172 43 183 47 17 7 17 5 -5 -20 -22 -25
-23 -27 -5 -21 30 11 153 33 317 56 81 11 155 23 165 27 16 6 16 5 4 -10 -19
-23 -4 -21 53 8 62 32 80 31 41 0z m-3995 -219 c0 -2 -8 -10 -17 -17 -16 -13
-17 -12 -4 4 13 16 21 21 21 13z m4996 -128 c94 -90 173 -186 179 -218 4 -23
-5 -26 -23 -8 -9 9 -12 9 -12 -1 0 -8 -6 -11 -16 -7 -12 5 -14 1 -9 -17 6 -21
6 -21 -15 3 -35 42 -210 312 -210 325 0 17 31 -5 106 -77z m959 -73 c33 -88
71 -251 78 -335 3 -36 3 -56 1 -45 -3 11 -17 70 -31 130 -14 61 -38 157 -54
214 -16 58 -29 107 -29 109 0 14 12 -11 35 -73z m-857 -420 c-3 -3 -9 2 -12
12 -6 14 -5 15 5 6 7 -7 10 -15 7 -18z m949 -22 c-3 -10 -5 -4 -5 12 0 17 2
24 5 18 2 -7 2 -21 0 -30z m-917 -18 c14 -19 14 -19 -2 -6 -10 7 -18 18 -18
24 0 6 1 8 3 6 1 -2 9 -13 17 -24z m-96 -76 c47 -69 55 -100 17 -65 -22 20
-86 136 -74 136 4 0 30 -32 57 -71z m-4044 -173 c-10 -24 -16 -46 -13 -49 2
-3 -10 -32 -27 -64 -48 -86 -64 -95 -34 -18 6 16 3 15 -14 -5 -57 -67 6 69 70
150 33 42 40 37 18 -14z m85 -68 c-16 -57 -59 -158 -67 -158 -16 0 -7 37 27
108 33 70 53 94 40 50z m4670 -479 c89 -42 164 -148 200 -284 35 -134 37 -355
4 -478 -64 -239 -276 -478 -496 -560 -123 -46 -253 -66 -325 -50 l-36 8 41
132 c33 102 46 133 62 137 10 3 22 0 26 -6 4 -7 39 -9 100 -6 81 3 101 8 143
33 55 32 136 109 135 128 0 9 -2 9 -6 -1 -10 -25 -61 -43 -103 -36 -34 6 -43
13 -64 49 -13 24 -20 47 -16 52 4 4 10 35 12 68 3 33 13 79 24 103 15 35 23
42 46 42 27 0 36 -3 85 -28 39 -20 38 -13 0 26 l-38 39 41 18 c22 10 40 22 40
27 0 4 9 8 20 8 17 0 99 -88 100 -108 1 -4 7 -29 15 -57 l14 -50 0 46 c2 89
-50 216 -113 281 -34 35 -35 38 -14 36 36 -3 130 23 159 43 26 19 27 19 41 -4
39 -59 60 -125 65 -204 3 -46 10 -83 16 -83 13 0 2 220 -13 272 -6 20 -26 60
-45 88 -19 29 -35 55 -35 59 0 4 -11 13 -25 19 -14 6 -25 15 -25 19 0 5 -22 9
-50 11 -68 4 -122 -22 -203 -98 -79 -74 -116 -142 -175 -325 -33 -102 -38
-130 -34 -185 3 -59 1 -69 -27 -110 -41 -60 -101 -128 -101 -113 0 6 8 53 19
104 10 52 26 139 36 194 15 82 29 122 80 226 34 69 81 186 104 260 79 244 71
229 121 255 58 31 133 32 195 3z m-5149 -144 c27 -8 62 -27 76 -42 15 -16 51
-92 83 -173 62 -156 120 -267 165 -315 22 -25 36 -63 74 -211 25 -99 54 -208
65 -242 l19 -62 -61 52 c-83 72 -97 98 -97 180 0 75 -35 187 -100 324 -87 180
-306 315 -399 246 -46 -33 -100 -114 -111 -165 -12 -57 -13 -188 -1 -169 4 7
8 30 9 51 1 21 12 56 24 78 23 39 24 40 87 42 35 1 67 -2 70 -8 4 -5 28 -11
53 -12 52 -3 52 1 2 -61 -57 -71 -102 -221 -86 -283 l9 -30 6 39 c3 22 18 63
33 93 l27 53 62 0 c34 0 69 -6 79 -13 17 -12 15 -16 -18 -56 -20 -24 -34 -46
-32 -48 3 -3 20 4 38 15 42 26 96 36 128 23 22 -8 22 -10 5 -11 -11 -1 -14 -4
-7 -7 6 -2 12 -11 12 -19 0 -8 9 -33 20 -55 17 -33 20 -51 15 -102 -4 -34 -11
-75 -17 -90 -11 -28 -12 -29 -71 -22 -74 9 -71 1 31 -62 74 -46 79 -48 152
-48 41 0 93 2 114 5 l39 5 34 -109 c19 -59 32 -111 28 -114 -3 -4 -50 -8 -103
-10 -124 -5 -208 14 -331 75 -80 39 -110 62 -191 142 -138 137 -213 256 -255
406 -25 90 -31 312 -11 405 38 181 147 313 262 319 11 1 43 -6 70 -14z m3121
-1127 c-3 -7 -5 -2 -5 12 0 14 2 19 5 13 2 -7 2 -19 0 -25z m176 -40 c2 -32 0
-58 -5 -58 -4 0 -8 30 -7 68 1 77 6 73 12 -10z m-36 -10 c-2 -13 -4 -5 -4 17
-1 22 1 32 4 23 2 -10 2 -28 0 -40z m-1460 22 c1 -11 -2 -20 -8 -20 -5 0 -9 9
-9 20 0 11 4 20 8 20 4 0 8 -9 9 -20z m1533 -132 c0 -83 -2 -149 -4 -147 -4 4
-10 260 -7 287 0 6 3 12 6 12 3 0 5 -68 5 -152z m-1593 95 c-3 -10 -5 -2 -5
17 0 19 2 27 5 18 2 -10 2 -26 0 -35z m30 -25 c-2 -13 -4 -5 -4 17 -1 22 1 32
4 23 2 -10 2 -28 0 -40z m27 17 c-4 -8 -8 -15 -10 -15 -2 0 -4 7 -4 15 0 8 4
15 10 15 5 0 7 -7 4 -15z m-57 -37 c-3 -8 -6 -5 -6 6 -1 11 2 17 5 13 3 -3 4
-12 1 -19z m1661 -103 c0 -49 -4 -99 -9 -110 -4 -12 -8 31 -8 105 0 75 3 119
8 110 5 -8 9 -55 9 -105z m-103 95 c3 -5 1 -10 -4 -10 -6 0 -11 5 -11 10 0 6
2 10 4 10 3 0 8 -4 11 -10z m-1649 -45 c-1 -8 -5 -17 -8 -21 -5 -4 -4 16 1 34
3 9 9 -1 7 -13z m-34 -142 c-4 -188 -9 -199 -11 -22 -1 120 2 159 13 159 1 0
0 -62 -2 -137z m65 95 c-3 -8 -6 -5 -6 6 -1 11 2 17 5 13 3 -3 4 -12 1 -19z
m-27 -20 c0 -21 -3 -29 -10 -22 -5 5 -7 19 -4 32 9 31 14 27 14 -10z m27 -35
c-3 -10 -5 -4 -5 12 0 17 2 24 5 18 2 -7 2 -21 0 -30z m1780 -65 c-2 -18 -4
-6 -4 27 0 33 2 48 4 33 2 -15 2 -42 0 -60z m420 25 c-3 -10 -5 -4 -5 12 0 17
2 24 5 18 2 -7 2 -21 0 -30z m-100 5 c-3 -8 -6 -5 -6 6 -1 11 2 17 5 13 3 -3
4 -12 1 -19z m30 -15 c-3 -10 -5 -4 -5 12 0 17 2 24 5 18 2 -7 2 -21 0 -30z
m-70 -10 c-3 -10 -5 -4 -5 12 0 17 2 24 5 18 2 -7 2 -21 0 -30z m-250 -45 c-2
-13 -4 -5 -4 17 -1 22 1 32 4 23 2 -10 2 -28 0 -40z m40 30 c-3 -8 -6 -5 -6 6
-1 11 2 17 5 13 3 -3 4 -12 1 -19z m39 -5 c-10 -10 -19 5 -10 18 6 11 8 11 12
0 2 -7 1 -15 -2 -18z m-1989 -150 c-2 -32 -3 -8 -3 52 0 61 1 87 3 58 2 -29 2
-78 0 -110z m100 85 c-2 -13 -4 -3 -4 22 0 25 2 35 4 23 2 -13 2 -33 0 -45z
m2200 40 c-3 -8 -6 -5 -6 6 -1 11 2 17 5 13 3 -3 4 -12 1 -19z m-280 -55 c-2
-16 -4 -5 -4 22 0 28 2 40 4 28 2 -13 2 -35 0 -50z m-250 25 c-3 -8 -6 -5 -6
6 -1 11 2 17 5 13 3 -3 4 -12 1 -19z m43 7 c0 -8 -4 -15 -8 -15 -5 0 -9 7 -9
15 0 8 4 15 9 15 4 0 8 -7 8 -15z m97 -147 c-2 -29 -3 -8 -3 47 0 55 1 79 3
53 2 -26 2 -71 0 -100z m83 122 c0 -11 -2 -20 -4 -20 -2 0 -6 9 -9 20 -3 11
-1 20 4 20 5 0 9 -9 9 -20z m-153 -12 c-3 -8 -6 -5 -6 6 -1 11 2 17 5 13 3 -3
4 -12 1 -19z m110 -10 c-3 -8 -6 -5 -6 6 -1 11 2 17 5 13 3 -3 4 -12 1 -19z
m-1850 -45 c-3 -10 -5 -2 -5 17 0 19 2 27 5 18 2 -10 2 -26 0 -35z m-350 5
c-3 -7 -5 -2 -5 12 0 14 2 19 5 13 2 -7 2 -19 0 -25z m40 -5 c-3 -10 -5 -4 -5
12 0 17 2 24 5 18 2 -7 2 -21 0 -30z m1980 5 c-3 -7 -5 -2 -5 12 0 14 2 19 5
13 2 -7 2 -19 0 -25z m-1938 -25 c-1 -53 -6 -49 -11 10 -2 20 0 37 4 37 4 0 8
-21 7 -47z m2008 25 c-3 -8 -6 -5 -6 6 -1 11 2 17 5 13 3 -3 4 -12 1 -19z
m110 -15 c-3 -10 -5 -4 -5 12 0 17 2 24 5 18 2 -7 2 -21 0 -30z m-1880 -35
c-2 -13 -4 -3 -4 22 0 25 2 35 4 23 2 -13 2 -33 0 -45z m1950 -5 c-2 -16 -4
-5 -4 22 0 28 2 40 4 28 2 -13 2 -35 0 -50z m-2090 -5 c-2 -13 -4 -3 -4 22 0
25 2 35 4 23 2 -13 2 -33 0 -45z m180 -40 c-2 -13 -4 -3 -4 22 0 25 2 35 4 23
2 -13 2 -33 0 -45z m1730 30 c-3 -8 -6 -5 -6 6 -1 11 2 17 5 13 3 -3 4 -12 1
-19z m-70 -25 c-3 -10 -5 -4 -5 12 0 17 2 24 5 18 2 -7 2 -21 0 -30z m-970 -5
c-3 -8 -6 -5 -6 6 -1 11 2 17 5 13 3 -3 4 -12 1 -19z m-970 -20 c-3 -7 -5 -2
-5 12 0 14 2 19 5 13 2 -7 2 -19 0 -25z m140 0 c-3 -7 -5 -2 -5 12 0 14 2 19
5 13 2 -7 2 -19 0 -25z m1720 -25 c-3 -10 -5 -4 -5 12 0 17 2 24 5 18 2 -7 2
-21 0 -30z m80 -25 c-2 -13 -4 -5 -4 17 -1 22 1 32 4 23 2 -10 2 -28 0 -40z
m140 20 c-3 -7 -5 -2 -5 12 0 14 2 19 5 13 2 -7 2 -19 0 -25z m-286 -9 c-9
-22 -10 -22 -10 -3 -1 11 2 24 6 27 12 12 14 0 4 -24z m-824 -16 c-3 -10 -5
-4 -5 12 0 17 2 24 5 18 2 -7 2 -21 0 -30z m40 -45 c-2 -18 -4 -6 -4 27 0 33
2 48 4 33 2 -15 2 -42 0 -60z m40 5 c-2 -16 -4 -3 -4 27 0 30 2 43 4 28 2 -16
2 -40 0 -55z m774 34 c-10 -9 -11 -8 -5 6 3 10 9 15 12 12 3 -3 0 -11 -7 -18z
m-644 -19 c-3 -7 -5 -2 -5 12 0 14 2 19 5 13 2 -7 2 -19 0 -25z m-30 -20 c-3
-7 -5 -2 -5 12 0 14 2 19 5 13 2 -7 2 -19 0 -25z m600 -10 c-3 -7 -5 -2 -5 12
0 14 2 19 5 13 2 -7 2 -19 0 -25z m-810 -45 c-3 -10 -5 -2 -5 17 0 19 2 27 5
18 2 -10 2 -26 0 -35z m40 -10 c-3 -10 -5 -4 -5 12 0 17 2 24 5 18 2 -7 2 -21
0 -30z m-110 5 c-3 -8 -6 -5 -6 6 -1 11 2 17 5 13 3 -3 4 -12 1 -19z m220 -40
c-2 -13 -4 -3 -4 22 0 25 2 35 4 23 2 -13 2 -33 0 -45z m330 30 c-3 -8 -6 -5
-6 6 -1 11 2 17 5 13 3 -3 4 -12 1 -19z m150 -15 c-3 -10 -5 -4 -5 12 0 17 2
24 5 18 2 -7 2 -21 0 -30z m-850 5 c-3 -8 -6 -5 -6 6 -1 11 2 17 5 13 3 -3 4
-12 1 -19z m470 -70 c-2 -18 -4 -4 -4 32 0 36 2 50 4 33 2 -18 2 -48 0 -65z
m43 76 c0 -8 -4 -12 -10 -9 -5 3 -10 10 -10 16 0 5 5 9 10 9 6 0 10 -7 10 -16z
m39 -46 c-1 -72 -5 -68 -12 10 -2 28 0 52 4 52 5 0 9 -28 8 -62z m-392 0 c-3
-7 -5 -2 -5 12 0 14 2 19 5 13 2 -7 2 -19 0 -25z m100 10 c-3 -8 -6 -5 -6 6
-1 11 2 17 5 13 3 -3 4 -12 1 -19z m360 -10 c-3 -7 -5 -2 -5 12 0 14 2 19 5
13 2 -7 2 -19 0 -25z m-540 0 c-3 -8 -6 -5 -6 6 -1 11 2 17 5 13 3 -3 4 -12 1
-19z m430 -40 c-2 -13 -4 -3 -4 22 0 25 2 35 4 23 2 -13 2 -33 0 -45z m-470
20 c-3 -8 -6 -5 -6 6 -1 11 2 17 5 13 3 -3 4 -12 1 -19z m370 -75 c-2 -16 -4
-3 -4 27 0 30 2 43 4 28 2 -16 2 -40 0 -55z m30 5 c-2 -13 -4 -5 -4 17 -1 22
1 32 4 23 2 -10 2 -28 0 -40z m40 -20 c-3 -7 -5 -2 -5 12 0 14 2 19 5 13 2 -7
2 -19 0 -25z m940 -137 c78 -76 147 -150 153 -165 30 -79 -12 -414 -94 -751
-24 -97 -36 -130 -47 -130 -9 0 -108 85 -220 188 -191 177 -332 287 -365 287
-8 0 -26 -11 -39 -25 -21 -20 -25 -33 -24 -82 0 -32 4 -76 9 -98 6 -29 7 -17
3 41 -6 90 5 124 39 124 23 0 98 -47 98 -61 0 -5 -26 -47 -57 -93 -37 -55 -60
-81 -65 -73 -5 8 -8 4 -8 -10 0 -38 -10 -51 -98 -125 -131 -109 -266 -243
-327 -322 -71 -93 -135 -220 -135 -267 0 -71 72 -120 125 -85 35 23 52 85 32
122 -15 29 -15 29 -10 -18 8 -67 -15 -100 -64 -96 -25 2 -42 11 -56 30 -19 25
-19 31 -7 69 18 53 47 73 85 59 24 -9 26 -9 16 4 -7 8 -26 16 -43 18 l-30 3
31 40 c122 157 292 331 413 425 53 41 75 67 113 134 51 92 100 156 118 156 14
0 105 -79 272 -235 171 -160 181 -168 210 -161 28 7 22 -9 80 235 47 200 95
460 95 517 0 18 5 36 10 39 6 4 7 13 1 23 -4 9 -9 36 -10 59 l-1 42 68 -30
c37 -17 177 -76 311 -131 351 -143 514 -225 572 -289 58 -63 153 -244 217
-415 50 -131 139 -419 211 -684 22 -80 70 -248 107 -375 126 -434 146 -546
124 -695 -14 -99 -50 -173 -113 -237 l-51 -53 -131 0 -130 0 -1 103 c-2 128
-28 231 -89 353 -56 112 -118 189 -215 271 -69 58 -198 133 -231 133 -11 1
-11 3 1 9 24 14 163 31 256 31 96 0 282 -43 364 -85 54 -27 64 -30 55 -15 -9
15 -99 59 -180 88 -63 23 -88 26 -254 29 -101 2 -187 6 -192 9 -5 3 -35 -2
-67 -12 -58 -17 -98 -20 -130 -10 -15 5 -21 25 -31 100 -7 52 -26 143 -42 203
-39 141 -48 274 -25 398 20 107 65 252 112 354 19 41 32 76 30 78 -3 4 -16
-21 -83 -166 -71 -152 -119 -424 -94 -531 5 -24 8 -46 6 -48 -11 -11 -80 117
-110 204 -38 108 -47 92 -16 -28 22 -85 68 -183 100 -212 12 -11 21 -26 21
-34 0 -8 7 -20 15 -26 16 -12 45 -162 45 -236 l0 -47 -86 -12 c-109 -15 -292
-79 -361 -127 -59 -40 -94 -89 -102 -143 l-6 -36 -89 -7 -88 -6 -82 45 c-122
68 -328 179 -441 236 -137 71 -171 71 -316 -1 -82 -40 -117 -52 -152 -52 -53
0 -61 16 -27 50 26 26 68 25 97 -2 13 -12 23 -17 23 -11 0 22 -42 47 -78 46
-39 -1 -72 -30 -72 -63 0 -12 -10 -19 -32 -23 -18 -3 -36 -2 -40 2 -4 4 -9
166 -10 361 l-2 355 29 83 c15 46 56 132 90 190 221 384 263 454 307 515 28
37 51 67 53 67 2 0 16 -38 31 -85 16 -46 29 -83 31 -82 1 2 -4 51 -11 110 -18
135 -12 157 66 248 132 153 330 447 352 522 9 31 16 62 16 70 0 9 6 19 12 24
17 11 91 41 103 42 6 0 74 -62 152 -138z m-372 4 c4 -24 3 -58 -3 -74 -11 -32
-119 -185 -186 -266 -80 -95 -177 -228 -200 -274 -23 -44 -26 -47 -97 -65 -41
-11 -68 -21 -61 -24 10 -3 8 -8 -5 -18 -15 -11 -8 -10 37 1 30 8 63 12 72 9
16 -5 16 -8 -6 -37 -27 -36 -165 -260 -233 -379 -30 -52 -49 -75 -58 -71 -8 2
-32 37 -53 76 -98 180 -126 227 -193 318 -27 37 -49 71 -49 77 0 6 14 7 41 1
23 -6 44 -7 47 -4 3 2 11 0 19 -7 11 -8 12 -7 7 5 -7 18 -73 52 -120 62 -52
10 -72 48 -93 173 -8 49 0 80 13 47 3 -8 16 -14 30 -13 23 2 24 5 19 53 -8 77
-32 222 -50 298 -9 37 -14 69 -11 72 2 2 20 0 39 -5 65 -20 265 -40 389 -40
197 1 439 41 615 103 39 14 73 25 77 26 4 1 10 -19 13 -44z m-1202 -12 c4 -2
7 -14 7 -26 0 -12 13 -71 29 -131 l29 -110 -24 -44 c-28 -53 -29 -77 -8 -180
25 -123 53 -178 201 -399 133 -197 203 -316 203 -345 0 -7 -22 -66 -50 -131
-70 -165 -74 -200 -66 -592 l6 -330 -30 -24 c-17 -13 -32 -22 -34 -20 -2 2
-19 56 -39 119 -44 143 -163 515 -314 978 -112 346 -132 419 -112 406 6 -3 22
7 37 23 15 16 48 46 73 66 l46 37 74 -83 c41 -45 120 -136 174 -201 55 -65
113 -133 129 -150 l28 -31 -18 30 c-39 66 -345 445 -378 469 -8 6 -42 -13
-102 -58 -49 -36 -92 -66 -96 -66 -4 0 -10 10 -13 21 -12 36 -84 107 -121 119
-19 6 -34 18 -34 26 0 23 68 200 115 299 42 87 110 199 182 298 33 44 38 48
67 41 17 -3 34 -8 39 -11z m-313 -283 c0 -5 -13 -35 -29 -67 -16 -32 -46 -108
-67 -169 l-39 -112 -288 -7 c-158 -4 -290 -5 -293 -2 -3 3 23 21 58 40 115 65
633 326 646 327 6 0 12 -4 12 -10z m-89 -425 c50 -18 93 -55 108 -94 14 -37
187 -567 261 -801 34 -107 68 -214 76 -238 18 -56 18 -57 -11 -57 -14 0 -25 3
-25 7 0 3 -3 13 -6 21 -3 8 3 23 13 33 17 17 17 17 -4 12 -16 -4 -22 -1 -26
18 -2 13 0 24 4 24 5 0 9 5 9 11 0 6 -6 9 -13 6 -10 -4 -13 2 -9 19 2 14 -6
41 -22 69 -15 25 -25 49 -21 54 3 5 -1 11 -7 14 -10 3 -10 11 -1 35 8 24 8 31
0 29 -7 -1 -11 6 -9 16 2 9 -2 17 -9 17 -7 0 -9 10 -7 25 3 13 2 22 -2 20 -4
-3 -14 5 -22 18 -14 23 -20 38 -132 392 -37 116 -72 222 -77 236 -11 28 -79
100 -79 83 0 -6 4 -14 9 -20 5 -5 21 -49 36 -99 14 -49 40 -134 57 -187 22
-71 27 -101 20 -115 -12 -22 -5 -64 36 -203 43 -147 88 -312 129 -470 39 -154
40 -235 2 -316 -52 -109 -246 -276 -543 -463 -228 -146 -463 -259 -510 -246
-14 4 -17 3 -8 -3 9 -6 -4 -13 -44 -20 -70 -15 -87 -15 -79 -2 3 6 -1 10 -10
10 -12 0 -15 -5 -11 -16 5 -13 -1 -15 -32 -13 -21 2 -44 -1 -52 -6 -8 -5 -156
-9 -330 -8 -468 0 -897 30 -972 68 -17 8 -33 15 -35 15 -18 0 28 -140 54 -161
8 -7 36 -16 62 -20 46 -6 46 -6 8 -8 -96 -3 -129 53 -247 414 -50 154 -111
339 -135 410 -91 273 -325 988 -380 1162 -65 208 -66 232 -10 282 19 16 49 32
67 35 30 5 1592 20 2499 24 325 2 393 0 430 -13z m159 -551 c0 -8 -4 -12 -10
-9 -5 3 -10 13 -10 21 0 8 5 12 10 9 6 -3 10 -13 10 -21z m197 -636 c-3 -8 -6
-5 -6 6 -1 11 2 17 5 13 3 -3 4 -12 1 -19z m113 -28 c0 -5 -8 -6 -17 -3 -12 5
-15 2 -10 -10 3 -9 2 -19 -2 -22 -5 -2 -11 4 -14 15 -5 18 5 28 31 29 6 1 12
-3 12 -9z m5 -120 c3 -5 1 -10 -4 -10 -6 0 -11 5 -11 10 0 6 2 10 4 10 3 0 8
-4 11 -10z m23 -52 c5 -7 12 -28 15 -46 13 -68 35 -112 53 -105 16 6 19 -13 4
-22 -5 -3 -7 -12 -4 -20 4 -8 11 -12 18 -8 6 4 4 -4 -5 -18 -14 -21 -15 -29
-4 -49 7 -13 10 -31 7 -39 -8 -21 -51 113 -45 141 3 17 2 19 -5 10 -7 -10 -11
-4 -17 25 -11 52 -11 52 -29 101 -15 41 -9 55 12 30z m1093 -316 c174 -95 327
-175 340 -178 l24 -5 -25 14 c-24 15 -24 15 25 21 28 3 129 17 225 31 96 14
190 25 207 25 100 0 254 -144 314 -291 21 -53 59 -245 51 -267 -2 -6 -59 -11
-160 -11 -86 -1 -190 -4 -229 -7 l-73 -7 -14 35 c-20 46 -77 96 -118 102 -18
2 -155 11 -305 20 -238 13 -278 18 -323 37 -44 19 -49 24 -33 32 25 14 73 59
73 70 0 5 -17 -1 -37 -14 -31 -18 -57 -23 -137 -27 -98 -4 -101 -5 -149 -44
-28 -21 -56 -37 -64 -33 -8 3 -57 5 -110 5 l-95 0 40 48 c21 26 52 67 68 91
26 40 44 52 179 117 83 39 172 80 199 90 27 10 44 20 38 22 -29 9 -289 -78
-369 -124 -25 -14 -59 -49 -83 -82 -73 -105 -128 -152 -178 -152 -28 0 -32 4
-42 43 -6 23 -15 55 -20 70 -8 24 -4 40 24 95 51 102 81 127 293 246 150 84
150 105 0 29 -37 -18 -73 -31 -79 -27 -6 4 -8 3 -5 -3 4 -6 -5 -13 -21 -16
-39 -8 -147 -81 -176 -120 -14 -18 -33 -52 -44 -77 l-19 -44 -30 91 c-27 80
-29 94 -17 111 28 41 164 133 289 197 192 99 169 103 566 -113z m1152 163
c167 -29 341 -144 440 -289 121 -178 185 -444 126 -520 l-22 -28 -244 4 c-273
4 -262 1 -263 78 -2 228 -166 471 -367 541 -63 22 -135 20 -234 -5 -27 -7 -51
-11 -53 -9 -10 11 18 63 53 97 42 41 143 86 260 115 132 34 190 37 304 16z
m-1906 -99 c1 -1 -29 -25 -67 -54 l-69 -51 -6 30 c-8 37 13 65 59 78 25 7 72
5 83 -3z m-220 -72 c-3 -4 0 -13 8 -21 12 -12 12 -16 -3 -31 -9 -10 -19 -14
-21 -9 -2 5 2 13 10 17 10 7 10 12 1 23 -11 12 -7 27 6 27 3 0 3 -3 -1 -6z
m13 -110 c0 -8 -4 -12 -10 -9 -5 3 -10 10 -10 16 0 5 5 9 10 9 6 0 10 -7 10
-16z m14 -60 c3 -8 2 -12 -4 -9 -6 3 -10 10 -10 16 0 14 7 11 14 -7z m86 -155
c28 -87 36 -127 29 -136 -6 -6 -10 -25 -9 -40 4 -60 -3 -55 -17 12 -8 39 -16
78 -16 88 -1 9 -4 17 -8 17 -8 0 -24 59 -21 73 1 4 -2 7 -8 7 -16 0 -12 22 8
37 16 13 15 13 -7 7 -17 -4 -22 -3 -18 7 2 8 10 13 17 11 9 -2 10 5 5 25 -16
67 9 5 45 -108z m663 -149 c29 0 59 -5 67 -11 11 -8 5 -9 -25 -5 -22 3 -62 6
-89 6 -46 0 -48 1 -30 14 10 8 21 10 22 5 2 -5 27 -9 55 -9z m27 -75 c681 -23
732 -26 727 -39 -3 -6 -8 -10 -13 -9 -5 1 -117 4 -249 7 -132 4 -348 11 -480
16 -132 5 -320 13 -417 16 -151 5 -178 9 -178 22 0 13 12 14 83 9 45 -4 282
-13 527 -22z m17 -67 c-3 -7 -5 -2 -5 12 0 14 2 19 5 13 2 -7 2 -19 0 -25z
m-592 2 c4 -6 -5 -10 -20 -10 -15 0 -24 4 -20 10 3 6 12 10 20 10 8 0 17 -4
20 -10z"/>
<path d="M5420 9489 c0 -5 5 -7 10 -4 6 3 10 8 10 11 0 2 -4 4 -10 4 -5 0 -10
-5 -10 -11z"/>
<path d="M4978 9273 c7 -3 16 -2 19 1 4 3 -2 6 -13 5 -11 0 -14 -3 -6 -6z"/>
<path d="M5065 8840 c-3 -5 -1 -10 4 -10 6 0 11 5 11 10 0 6 -2 10 -4 10 -3 0
-8 -4 -11 -10z"/>
<path d="M3748 8963 c6 -2 18 -2 25 0 6 3 1 5 -13 5 -14 0 -19 -2 -12 -5z"/>
<path d="M3698 8898 c-2 -14 -9 -22 -18 -19 -32 7 -87 3 -110 -9 -41 -22 -1
-28 100 -15 52 7 85 13 73 14 -17 1 -23 7 -23 26 0 31 -17 33 -22 3z"/>
<path d="M3414 8218 l-19 -23 23 19 c21 18 27 26 19 26 -2 0 -12 -10 -23 -22z"/>
<path d="M5996 6850 c-237 -29 -454 -127 -500 -225 -30 -62 -18 -118 31 -144
25 -13 56 -7 200 34 131 38 321 75 444 86 242 21 458 -34 668 -171 70 -46 72
-42 18 49 -107 178 -268 308 -443 357 -69 19 -311 27 -418 14z"/>
<path d="M3681 6775 c-146 -27 -230 -73 -331 -182 -37 -40 -88 -111 -118 -165
-48 -87 -74 -158 -57 -158 4 0 29 20 56 44 99 89 226 159 349 193 52 15 103
18 260 18 190 -1 200 -2 404 -44 l209 -43 26 20 c20 15 27 29 29 65 3 42 -1
50 -37 90 -73 78 -208 137 -379 162 -119 18 -311 18 -411 0z"/>
<path d="M5975 6376 c-104 -26 -207 -90 -245 -151 -29 -46 -62 -129 -48 -118
7 6 39 31 71 57 229 184 512 192 809 22 92 -52 90 -33 -5 44 -80 65 -203 126
-292 145 -84 18 -221 18 -290 1z"/>
<path d="M3874 6330 c-164 -24 -347 -132 -448 -264 -33 -44 -28 -46 18 -5 61
53 197 128 280 155 109 35 238 42 337 20 82 -18 181 -61 234 -102 20 -15 41
-24 50 -20 14 5 14 9 0 36 -43 83 -180 164 -305 180 -84 11 -94 11 -166 0z"/>
<path d="M6006 6265 c-131 -34 -250 -123 -304 -231 -29 -58 -56 -162 -66 -259
l-6 -50 35 73 c43 92 94 161 148 204 l42 33 -32 -40 c-50 -63 -73 -147 -73
-262 1 -274 121 -446 339 -484 127 -23 245 16 332 108 85 90 128 220 129 385
0 99 -21 168 -70 237 -17 23 -27 41 -22 41 38 0 185 -161 223 -245 39 -84 16
-263 -46 -371 -22 -38 -75 -91 -121 -122 -10 -7 0 -3 24 10 65 34 101 83 242
327 24 41 61 94 82 117 l39 43 -29 15 c-17 9 -55 51 -86 94 -80 114 -123 164
-196 227 -76 66 -127 96 -224 131 -90 33 -266 42 -360 19z m374 -240 c60 -31
75 -116 27 -150 -34 -24 -90 -19 -117 9 -34 38 -33 101 3 132 33 28 47 29 87
9z m-349 -24 c86 -87 -29 -236 -124 -161 -38 30 -52 80 -34 123 30 71 106 90
158 38z m393 -342 c33 -15 24 -29 -19 -29 -35 0 -51 12 -40 30 8 13 28 13 59
-1z m-88 -127 c-18 -36 -10 -42 54 -42 21 0 42 -5 45 -10 4 -6 -5 -31 -20 -56
-95 -161 -366 -181 -498 -35 -20 23 -37 45 -37 49 0 12 44 31 90 38 l40 7 -30
34 c-41 47 -38 49 15 8 101 -77 236 -71 321 15 35 34 41 32 20 -8z m-398 6
c21 -21 13 -33 -34 -50 l-45 -16 -10 25 c-5 14 -8 27 -7 27 43 26 79 31 96 14z"/>
<path d="M3788 6205 c-204 -50 -353 -180 -502 -438 -15 -27 -43 -58 -62 -69
l-34 -20 49 -54 c28 -30 88 -112 134 -182 84 -126 147 -196 205 -226 49 -26
50 -18 1 12 -93 60 -147 151 -169 285 -18 117 17 221 115 340 28 34 74 80 101
102 l49 40 -33 -40 c-55 -70 -75 -142 -76 -280 -1 -97 3 -133 21 -190 39 -123
119 -222 223 -273 48 -24 67 -27 150 -27 87 0 101 3 168 34 157 74 230 216
219 426 -7 125 -27 200 -73 272 l-35 55 45 -37 c54 -44 108 -114 135 -176 26
-59 27 -25 1 75 -53 207 -159 323 -341 371 -67 18 -216 18 -291 0z m404 -245
c35 -36 33 -71 -8 -107 -32 -29 -49 -29 -79 2 -31 30 -32 73 -4 109 27 34 54
33 91 -4z m-341 -39 c71 -71 3 -195 -97 -177 -75 15 -102 120 -45 177 23 23
38 29 71 29 33 0 48 -6 71 -29z m287 -128 c5 -18 -28 -29 -38 -12 -5 7 -6 17
-3 22 7 12 35 5 41 -10z m127 -173 c0 -18 -72 -27 -87 -12 -19 19 3 33 45 30
29 -2 42 -8 42 -18z m-489 -35 c16 -42 -75 -65 -96 -25 -16 30 -4 40 46 40 31
0 46 -5 50 -15z m101 -159 c72 -36 190 -9 256 58 41 41 41 37 4 -18 l-21 -29
35 7 c84 18 101 19 109 6 22 -35 -67 -152 -143 -189 -120 -58 -255 -42 -358
41 -19 16 -89 107 -89 117 0 3 35 4 78 0 42 -4 79 -5 81 -3 3 2 -5 14 -15 27
-11 12 -28 36 -38 52 -17 27 -14 26 25 -11 24 -23 58 -49 76 -58z"/>
<path d="M6455 5260 c-12 -4 -78 -16 -149 -25 -127 -17 -176 -16 -381 10 -35
5 -37 4 -15 -5 65 -29 170 -43 315 -44 157 0 239 13 229 38 -3 7 5 18 18 24
27 12 13 15 -17 2z"/>
<path d="M4195 5199 c-55 -17 -219 -39 -295 -39 -65 0 -161 11 -225 25 -11 3
-6 -2 10 -10 l30 -14 -27 -1 c-41 0 -34 -17 10 -24 105 -15 146 -16 250 -6
100 9 302 60 302 75 0 7 -21 5 -55 -6z"/>
<path d="M4860 4930 c0 -8 101 -52 107 -47 2 2 -6 12 -16 21 -21 19 -91 39
-91 26z"/>
<path d="M5153 4925 c-18 -8 -33 -19 -33 -25 0 -6 18 -1 40 10 59 30 53 42 -7
15z"/>
<path d="M5410 4718 c0 -26 -4 -48 -10 -48 -5 0 -10 20 -10 45 0 63 -18 57
-23 -7 l-3 -53 -2 53 c-1 28 -6 52 -11 52 -6 0 -12 -24 -14 -52 l-3 -53 -2 53
c-1 30 -7 52 -13 52 -7 0 -10 -18 -7 -50 1 -28 0 -50 -4 -50 -5 0 -8 23 -8 50
0 29 -5 50 -11 50 -6 0 -9 -19 -8 -50 2 -27 0 -53 -4 -56 -4 -4 -7 19 -7 51 0
71 -17 63 -23 -10 l-3 -50 -2 53 c-2 66 -22 69 -22 2 0 -80 -22 -63 -33 25 -2
17 -5 4 -6 -29 l-1 -59 78 6 c42 4 98 9 125 13 l47 7 2 46 1 46 4 -43 c4 -43
22 -50 24 -9 1 17 3 15 9 -8 l7 -30 11 25 c8 18 11 20 11 8 1 -13 9 -18 27
-18 20 0 25 4 20 16 -3 9 -6 29 -6 45 0 24 -4 29 -24 29 -19 0 -26 -6 -29 -27
l-4 -28 -2 28 c-1 33 -18 36 -24 5 -4 -23 -4 -23 -6 -1 -1 15 -7 21 -21 20
-17 -1 -20 -8 -20 -49z m107 10 c-3 -8 -6 -5 -6 6 -1 11 2 17 5 13 3 -3 4 -12
1 -19z"/>
<path d="M4400 4705 c0 -25 5 -45 10 -45 6 0 10 20 10 45 0 25 -4 45 -10 45
-5 0 -10 -20 -10 -45z"/>
<path d="M4430 4705 c0 -57 18 -59 23 -2 l4 42 1 -42 c3 -57 19 -55 24 2 3 43
2 45 -24 45 -26 0 -28 -3 -28 -45z"/>
<path d="M4500 4705 c0 -40 2 -45 23 -45 19 0 22 5 22 45 0 25 -3 45 -7 45 -5
0 -8 -18 -8 -40 0 -23 -5 -40 -11 -40 -8 0 -9 13 -5 40 4 25 2 40 -4 40 -5 0
-10 -20 -10 -45z"/>
<path d="M4563 4700 c0 -30 2 -43 4 -27 2 15 9 27 15 27 6 0 8 -10 4 -24 -5
-21 -2 -24 32 -30 20 -3 60 -6 88 -6 l50 0 0 50 c1 28 -3 50 -8 50 -4 0 -8
-21 -9 -47 -1 -54 -6 -48 -11 12 l-4 39 -54 0 -55 0 2 -37 c2 -20 -2 -37 -7
-37 -6 0 -11 19 -11 43 -1 23 -4 32 -6 20 -2 -13 -8 -23 -13 -23 -5 0 -11 10
-13 23 -2 12 -4 -3 -4 -33z m87 -6 c0 -13 -4 -24 -8 -24 -5 0 -9 13 -9 30 0
16 4 27 9 24 4 -3 8 -16 8 -30z m30 -10 c0 -21 -4 -33 -10 -29 -5 3 -10 22
-10 41 0 21 4 33 10 29 6 -3 10 -22 10 -41z m30 4 c0 -49 -5 -47 -13 5 -3 20
-2 37 4 37 5 0 9 -19 9 -42z"/>
<path d="M5010 4691 l0 -61 80 0 80 0 0 61 c0 36 -4 58 -10 54 -5 -3 -7 -28
-4 -55 4 -32 2 -50 -5 -50 -6 0 -12 17 -13 38 -2 55 -3 60 -11 68 -4 4 -7 -18
-7 -49 0 -31 -4 -57 -10 -57 -5 0 -10 25 -10 55 0 34 -4 55 -11 55 -8 0 -9
-17 -4 -55 4 -37 3 -55 -4 -55 -6 0 -11 21 -11 50 0 38 -4 50 -15 50 -11 0
-14 -7 -10 -22 3 -13 1 -36 -4 -53 -8 -27 -9 -25 -10 22 -1 28 -5 55 -11 58
-6 4 -10 -17 -10 -54z"/>
<path d="M4770 4685 c0 -30 5 -55 10 -55 6 0 10 25 10 55 0 30 -4 55 -10 55
-5 0 -10 -25 -10 -55z"/>
<path d="M4800 4685 l0 -55 100 0 100 0 0 55 c0 30 -4 55 -10 55 -5 0 -10 -22
-10 -50 0 -38 -4 -50 -15 -50 -11 0 -15 12 -15 50 0 30 -4 50 -11 50 -8 0 -10
-17 -7 -50 3 -27 1 -50 -3 -50 -5 0 -9 23 -9 50 0 66 -18 64 -23 -2 l-3 -53
-2 53 c-3 66 -22 69 -22 2 0 -29 -5 -50 -11 -50 -6 0 -10 15 -9 33 3 48 1 67
-7 67 -5 0 -6 -22 -5 -50 3 -32 0 -50 -7 -50 -7 0 -11 20 -11 50 0 28 -4 50
-10 50 -5 0 -10 -25 -10 -55z"/>
<path d="M4963 4695 c0 -27 2 -38 4 -22 2 15 2 37 0 50 -2 12 -4 0 -4 -28z"/>
<path d="M5630 4672 c0 -28 -37 -58 -123 -97 -155 -72 -336 -101 -566 -92
-202 8 -385 59 -439 121 -25 30 -49 31 -66 3 -14 -23 11 -45 98 -89 127 -64
348 -93 592 -78 249 16 404 64 532 167 46 38 52 57 23 73 -30 15 -51 12 -51
-8z"/>
<path d="M6463 3329 c27 -16 87 -40 87 -35 0 6 -89 46 -99 46 -3 0 2 -5 12
-11z"/>
<path d="M6660 3246 c0 -2 7 -7 16 -10 8 -3 12 -2 9 4 -6 10 -25 14 -25 6z"/>
<path d="M7086 3036 c7 -17 44 -22 44 -6 0 6 -4 10 -9 10 -5 0 -17 3 -25 6
-12 5 -15 2 -10 -10z"/>
<path d="M7220 3004 c-19 -9 -46 -20 -59 -25 -13 -5 -22 -12 -19 -14 4 -5 114
38 125 49 11 10 -10 6 -47 -10z"/>
<path d="M5194 1590 c0 -58 1 -81 3 -52 2 28 2 76 0 105 -2 28 -3 5 -3 -53z"/>
<path d="M4230 2548 c0 -9 5 -20 11 -23 17 -11 18 -2 3 19 -12 17 -14 17 -14
4z"/>
<path d="M2719 2145 c-62 -20 -141 -93 -174 -158 -50 -104 -42 -241 23 -361
39 -74 140 -169 220 -208 61 -30 75 -33 162 -33 119 0 177 23 249 100 132 140
99 382 -76 545 -93 87 -173 124 -278 127 -49 2 -98 -3 -126 -12z m263 -54 c75
-37 162 -121 197 -190 52 -100 55 -259 8 -350 -29 -55 -92 -106 -150 -122 -66
-18 -172 -7 -244 26 -107 47 -206 169 -237 290 -31 117 -13 212 55 289 66 75
119 96 229 93 62 -2 87 -8 142 -36z"/>
<path d="M4557 1894 c-4 -4 -7 -14 -7 -23 0 -11 3 -12 11 -4 6 6 10 16 7 23
-2 6 -7 8 -11 4z"/>
<path d="M6800 766 c0 -17 14 -29 23 -20 8 8 -3 34 -14 34 -5 0 -9 -6 -9 -14z"/>
<path d="M768 163 c7 -3 16 -2 19 1 4 3 -2 6 -13 5 -11 0 -14 -3 -6 -6z"/>
<path d="M807 157 c6 -10 2306 -8 2358 2 22 4 -501 8 -1162 7 -660 -1 -1199
-4 -1196 -9z"/>
<path d="M3550 159 c269 -12 3120 -15 3108 -4 -3 3 -736 7 -1629 8 -893 2
-1559 0 -1479 -4z"/>
<path d="M9370 150 c0 -5 5 -10 10 -10 6 0 10 5 10 10 0 6 -4 10 -10 10 -5 0
-10 -4 -10 -10z"/>
</g>
</svg>
